<?xml version="1.0" encoding="UTF-8"?><svg id="Layer_2" xmlns="http://www.w3.org/2000/svg" viewBox="0 0 1616.0145623179 279.6869557333"><g id="Layer_1-2"><path d="m388.9998064414,268.9933935735h-80.4286375891V10.2146067543h80.4286375891v80.2130264266C421.9259005457,32.5814278743,460.0323365279,3.6554882321,503.3077664321,3.6554882321c11.5125012817,0,23.7512717424,2.1844815148,36.7219853599,6.5591185223v80.6499227295c-31.0366594435-16.1765111652-57.91996702-24.2619297588-80.6499227295-24.2619297588-28.9997013558,0-52.4559262442,15.5183297218-70.3800226212,46.5549891653v155.8358046832Z"/><path d="m739.5722087044,216.5374673294V10.2146067543h80.434311567v258.7787868192h-80.434311567v-32.7842446554c-9.322345789,12.8231901906-21.1639377924,22.6221501282-35.5134280543,29.396879813-14.3551642399,6.7747296848-29.396879813,10.1620945271-45.1364946752,10.1620945271-16.6077334902,0-32.1998249254-3.3873648424-46.7706003278-10.1620945271s-26.5939347005-17.0105859254-36.0638039164-30.7075687218c-9.469869216-13.6969827965-14.2076408129-29.5046853942-14.2076408129-47.4287817712V10.2146067543h80.434311567v187.5249715921c0,17.487200074,3.5689321371,30.7472865675,10.7067964113,39.7802594806,7.1378642743,9.038646891,16.3921223277,13.5494593695,27.7571001824,13.5494593695,9.4698692159,0,19.5241581618-3.0923179884,30.1628668376-9.2883019212,10.6387086758-6.1903099548,20.1823396053-14.6048192701,28.6308927883-25.2435279459Z"/><path d="m939.3416247351,268.9933935735h-80.428637589V10.2146067543h80.428637589v77.1490783279c15.4445680083-26.951395312,34.4580681537-47.9734836554,57.0461744141-63.0549170742,22.5824322825-15.0814334188,44.5123570996-22.6221501282,65.7897744512-22.6221501282,20.1029039138,0,36.3134589467,6.6328802357,48.6259911209,19.8929667293,12.3125321741,13.2600864935,18.4687982612,32.6367212284,18.4687982612,58.1355781825,10.0542889459-16.4658840412,22.0036865306-30.6678508761,35.848192754-42.6172484608,13.8388322455-11.9493975847,27.825187918-20.8348470707,41.9647409953-26.667696414,14.1282051215-5.8271753653,27.8989496314-8.743600037,41.3065595519-8.743600037,19.5241581618,0,35.4396663408,6.1959839328,47.7578724929,18.5822778204,12.3068581962,12.3862938876,18.4687982612,30.2366285511,18.4687982612,53.5453300125v195.1791678608h-80.6499227295V69.8821589862c0-10.9280815518-2.3320049418-19.2007414181-6.9960148252-24.806631643-4.6640098834-5.6115642029-10.8543198383-8.4145093153-18.5766038424-8.4145093153-12.0969210116,0-25.6804242489,6.2243538226-40.7618576677,18.6844094237-15.0814334188,12.4600556011-27.8705797416,29.0337452235-38.3617649905,49.7210688672v163.9268972547h-80.6499227295V72.066640501c0-11.2174544278-2.1844815148-19.6319637431-6.5534445443-25.2435279459-4.3746370075-5.6115642029-10.3493357999-8.4145093153-17.924096377-8.4145093153-12.6756667636,0-27.0648748712,6.740685817-43.1676243229,20.216383473-16.1027494517,13.475697656-29.9812995429,31.3657501652-41.6356502736,53.6588095717v156.7095972891Z"/><path d="m1565.5275064259,151.6082512326l50.4870558919,120.4301822101h-80.6499227295l-15.5183297218-37.5957779658v6.3435073598c-20.6873236437,25.9357532571-52.8190608336,38.9007928967-96.3838636137,38.9007928967-25.0619606513,0-45.1308206972-6.8144475305-60.2122541161-20.4319946355-15.0814334188-13.623221083-22.6221501282-30.5657192728-22.6221501282-50.8161466136,0-10.3493357998,2.0766759335-20.6589537539,6.2300278005-30.9288538623,4.1476778891-10.2699001084,10.8486458603-20.4717124812,20.1029039138-30.5997631406,9.2542580535-10.1280506594,20.6192359083-19.2347852859,34.1006075422-27.3202038794,13.475697656-8.0854185936,30.2706724189-14.9736278376,50.3792503107-20.653279776,20.1029039138-5.6853259163,42.2541138713-9.328019767,66.4422819166-10.9280815518v-37.1588816628c0-39.9221089296-38.7646174256-31.4735557465-116.2768303431,25.3513335272-3.2057975477,2.3376789197-7.6485222907,5.6853259163-13.333848207,10.0542889459-5.9746987923,4.3746370075-9.9067655189,7.2172999657-11.8018741577,8.5279888745V14.1334392294c12.9650396396-1.7475852118,24.2619297588-3.1320358342,33.8793224017-4.153351867,9.6173926429-1.0213160329,20.9029348062-2.0426320658,33.8736484238-3.0639480987,12.9707136175-1.0156420549,24.2959736266-1.5263000713,33.987127983-1.5263000713s20.1823396053.4368963029,31.4735557465,1.3106889088c11.2912161413.8737926059,20.9823704976,2.439810523,29.0677890913,4.6980537512,8.0910925715,2.2639172062,16.1027494517,5.3221913269,24.0463185963,9.18049634,7.9378951666,3.8639789911,14.3494902619,8.5620327423,19.2347852858,14.0998352317,4.879621046,5.5378024894,8.8514056183,12.2728143284,11.9096797389,20.216383473,3.0582741207,7.9435691446,4.59024817,16.9368242119,4.59024817,26.9911131577v18.36099268h-59.4519410694c-35.842518776,0-65.0237874265,9.1067346265-87.5324579955,27.3202038795-22.514344547,18.213469253-33.7715168204,41.0171866759-33.7715168204,68.4111522689,0,16.7552569171,4.5562043022,30.6338070083,13.6629389287,41.6356502736,9.1067346265,11.0018432653,21.0901760789,16.4999279089,35.9559983352,16.4999279089,8.59607661,0,17.2261970878-2.3263309638,25.8960354114-6.9903408472s16.4261661954-11.2912161413,23.2803315717-19.8929667292l-31.694840887-75.6227782566h80.6499227295Z"/><path d="m274.9361035178,175.3485579269c-4.2108977722-10.5453673929-11.0853218362-20.9468494479-20.5510000147-31.2762789979-9.4656781785-10.32942955-21.0186822807-19.6510027184-34.803336989-27.8931063447-10.8693839933-6.5501877913-23.7540414053-12.3088963884-38.7985165906-17.2396601943,8.0621920359-2.8432182099,15.2243867756-7.0543356544,21.3068923009-12.6329129888,12.6687195691-11.4451450169,19.0031891898-25.6616754109,19.0031891898-42.6853977623,0-8.6737596398-1.7635289955-17.3117126993-5.2187541538-25.9856920114-1.799555248-4.4628618676-4.2469240247-8.9977762402-7.270053825-13.4606381078-9.8257210315-.827725119-19.759081476-1.5115649001-29.8007403503-2.0873259237-.9358038765-.072052505-1.9434405859-.1441050101-2.9152707149-.1801312626-9.1416615781-.5397347711-18.1754640708-1.0076367093-27.2092665636-1.3316533098l-15.1523342706-.5757610236c-10.9772430786.6117872761-10.9772430786-.2519640954-24.9057831247.8637513715-11.517197522.8637513715-21.4505579665,2.4833950292-29.6926615928,4.8229047206-8.2779102066,2.2674571863-16.4479613278,5.3986657441-24.5819861965,9.3575994209-8.0979986162,3.9231270965-14.6481864075,8.7458121448-19.6510027184,14.3964419844-4.9307638059,5.6506298395-8.9977762402,12.5608604838-12.128984798,20.6228328475-3.1312085578,8.1340248687-4.714825963,17.3117126993-4.714825963,27.6053356691v18.7512250944h60.7169764953c36.602892237,0,66.4036325873,9.3217928407,89.4017817064,27.8931063447,23.0343950439,18.6075594288,34.5155663133,41.8936988959,34.5155663133,69.8588577456,0,17.131801109-4.6427734579,31.3120855782-13.9285400461,42.505486172-9.2857665882,11.2652334265-21.558636724,16.843810761-36.7109709946,16.843810761-8.8538909024,0-17.6357292998-2.3034834388-26.5254267824-7.0903619069-8.8178646499-4.7508522155-16.6999254232-11.5530041022-23.7540414053-20.3348424996l32.3559682123-77.2730165807H51.5392886647L0,271.9127540453h82.3836919769l15.871980632-38.4024474851v6.442328706c21.090954458,26.4894005299,53.9148246086,39.7343204671,98.4358038715,39.7343204671,25.5535966533,0,46.0685704155-6.9822831493,61.4726491092-20.8750166151,15.4403246185-13.9285400461,23.1064475489-31.2402527454,23.1064475489-51.9351380979,0-10.5093411403-2.087545596-21.0907347858-6.3344696207-31.5282430933ZM100.2351394472,45.9246850777c0-26.8134171303,17.131801109-37.7546339564,51.4674558319-30.5564129643.9358038766.1799115903,1.799555248.4318756857,2.627280367.5757610236,1.3316533098,5.4707182492,1.9794668384,11.229207174,1.9794668384,17.203853614,0,14.144477889-3.8510745915,25.7335082437-11.5171975219,34.9832485793-7.6661229305,9.2497403356-17.7075621325,13.8925137936-30.1963701113,13.8925137936-4.786878468,0-9.6097831886-.8637513715-14.3606354041-2.627280367v-33.4716836792Z"/></g></svg>