<?xml version="1.0" encoding="UTF-8"?><svg id="Layer_2" xmlns="http://www.w3.org/2000/svg" viewBox="0 0 640.3567534214 636.8043605772"><g id="Layer_1-2"><path d="m625.8729358102,399.1942754396c-9.6557946937-23.8926567519-25.2367646701-47.607086937-46.7566389835-71.1568521821-21.506145259-23.5360361907-47.9362493893-44.7267480519-79.2902286771-63.5309484201-24.674459433-14.7854382408-54.1220255656-27.870231716-88.3699890793-39.2130258346,18.447579807-6.5012932879,34.6457712383-16.0473392596,48.6220324028-28.6657634515,28.8577190729-26.0597545146,43.2591623572-58.4835954861,43.2591623572-97.2028776422,0-19.7916877252-3.9501168551-39.5285429462-11.9051830694-59.1693784996-4.1696142991-10.3142033121-9.6695237482-20.5872194607-16.5410829381-30.8190484459-22.342864158-1.7419156428-44.9737036048-3.3192500594-67.8376858364-4.6908160865l-6.6520617459-.3977240109c-20.8340912999-1.2207138554-41.4898723192-2.2631174302-61.9673430579-3.0997526154-11.0548188297-.4937436785-22.0137017057-.8914676894-32.9450427589-1.2480882506-26.553498193,1.5361472532-25.9089023429-.4800983377-58.2367236469,2.0161618772-26.2517101359,2.016245591-48.8002589697,5.6783034434-67.5907302835,10.9176957125-18.8316584772,5.2667666643-37.4437357966,12.3851976934-55.9187737126,21.3415640329-18.4613088615,8.9974697891-33.3564958243,19.9151655016-44.7267480519,32.7941068735-11.3566068868,12.8652960311-20.5872194607,28.542285675-27.6919214353,47.0035945365-7.1047019746,18.4750379159-10.6708238733,39.391419829-10.6708238733,62.776603848v42.6831280657h138.226464392c83.3637395949,0,151.2014254314,21.1769828067,203.5540772453,63.5309484201,52.3390064732,42.3539656134,78.5358841049,95.3924004408,78.5358841049,159.0879300871,0,38.9524249409-10.6159076554,71.2254137407-31.7791614077,96.8051536313-21.1907118612,25.5933852313-49.0472145227,38.3626615949-83.6106951479,38.3626615949-19.9837270602,0-40.0497447336-5.3902444408-60.2254274151-16.2393785947-20.1483082864-10.8490504402-38.184435028-26.2654391904-54.1357546201-46.2628953051l73.7079449012-175.8484267554H117.3922893783L0,619.001460334h187.5341960946l36.0721697695-87.423605172v14.7443347911c48.1145596699,60.3214470827,122.8237209825,90.482170624,224.141296706,90.482170624,58.2779108103,0,104.9248010718-15.8552999245,139.99575443-47.5247126102,35.0709533581-31.6832254539,52.6133364213-71.0745615691,52.6133364213-118.1604467187,0-24.0709670325-4.8279392037-48.0322690568-14.4838176112-71.9249258088Zm-296.2308037409-243.9741715945c-17.4051762322,21.0535050302-40.3377200224,31.5734767318-68.7703406892,31.5734767318-10.8490504402,0-21.7392880438-1.9476840324-32.6843581515-5.8428846696v-76.2864957292c0-61.1032497638,39.0621736629-85.9286450822,117.2002500432-69.6344339834,2.1397233674.4526402288,4.1421561902.8915514031,5.993820555,1.3304625774,2.94881673,12.4674883065,4.4164024246,25.5522817816,4.4164024246,39.2404839435,0,32.0397623013-8.7231398409,58.5795314399-26.1557741821,79.6193911294Z"/></g></svg>